PathFileType	4	(X/Y/Z)	/tmp/tmpjnq7zxqp/Me/MarkerData/jogging03_segment_0.trc
DataRate	CameraRate	NumFrames	NumMarkers	Units	OrigDataRate	OrigDataStartFrame	OrigNumFrames
100.092	100.092	8	39	m	100.092	543	1086
Frame#	Time	C7			CLAV			LANK			LASI			LBHD			LELB			LFHD			LFIN			LFRM			LHEE			LKNE			LPSI			LSHO			LTHI			LTIB			LTOE			LUPA			LWRA			LWRB			RANK			RASI			RBAK			RBHD			RELB			RFHD			RFIN			RFRM			RHEE			RKNE			RPSI			RSHO			RTHI			RTIB			RTOE			RUPA			RWRA			RWRB			STRN			T10		
		X1	Y1	Z1	X2	Y2	Z2	X3	Y3	Z3	X4	Y4	Z4	X5	Y5	Z5	X6	Y6	Z6	X7	Y7	Z7	X8	Y8	Z8	X9	Y9	Z9	X10	Y10	Z10	X11	Y11	Z11	X12	Y12	Z12	X13	Y13	Z13	X14	Y14	Z14	X15	Y15	Z15	X16	Y16	Z16	X17	Y17	Z17	X18	Y18	Z18	X19	Y19	Z19	X20	Y20	Z20	X21	Y21	Z21	X22	Y22	Z22	X23	Y23	Z23	X24	Y24	Z24	X25	Y25	Z25	X26	Y26	Z26	X27	Y27	Z27	X28	Y28	Z28	X29	Y29	Z29	X30	Y30	Z30	X31	Y31	Z31	X32	Y32	Z32	X33	Y33	Z33	X34	Y34	Z34	X35	Y35	Z35	X36	Y36	Z36	X37	Y37	Z37	X38	Y38	Z38	X39	Y39	Z39

544	5.425	-0.175208	1.4693	0.00846636	-0.334699	1.39066	-0.0240902	0.227194	0.238891	0.0859544	-0.216102	1.00163	0.159716	-0.255247	1.59082	0.08674	-0.330459	1.12594	0.269465	-0.360782	1.66509	0.0605506	-0.491075	1.21894	0.011318	-0.402493	1.10894	0.134217	0.27345	0.291795	0.0280613	-0.0993236	0.474869	0.140831	-0.089606	1.03624	0.0282215	-0.274902	1.45461	0.162016	-0.148949	0.662661	0.170772	0.11427	0.34088	0.123261	0.181073	0.0746581	0.0171834	-0.329751	1.29728	0.248317	-0.406217	1.19066	0.061808	-0.454298	1.13665	0.0627418	-0.373791	0.1004	-0.0666149	-0.225434	0.986927	-0.144892	-0.0932535	1.35533	-0.0917505	-0.230015	1.59757	-0.0597312	-0.0448074	1.21743	-0.30149	-0.337372	1.66063	-0.0669742	-0.318558	1.04515	-0.191614	-0.0848934	1.14014	-0.283627	-0.310185	0.0488848	-0.00615187	-0.350234	0.51078	-0.0970968	-0.0917682	1.02601	-0.0354802	-0.223724	1.45648	-0.168052	-0.2683	0.820295	-0.166277	-0.336906	0.381314	-0.122077	-0.52923	0.122889	-0.000539477	-0.0980587	1.29119	-0.281073	-0.217077	1.10218	-0.185887	-0.214311	1.04099	-0.223685	-0.361925	1.22892	-0.0195806	-0.111453	1.26098	0.0225288
545	5.43499	-0.17535	1.46238	0.00716494	-0.334659	1.38281	-0.0252824	0.228301	0.243823	0.0852021	-0.216893	0.995001	0.159681	-0.255102	1.58428	0.0843947	-0.327084	1.11896	0.269984	-0.360367	1.65884	0.0578425	-0.490454	1.20336	0.0105913	-0.399258	1.09755	0.135059	0.268653	0.299018	0.0255253	-0.107376	0.466427	0.143789	-0.08882	1.02743	0.0293603	-0.276586	1.44653	0.161288	-0.154954	0.654916	0.172031	0.111491	0.340865	0.123753	0.191351	0.0752567	0.0199957	-0.328928	1.29002	0.24759	-0.404784	1.17803	0.0612925	-0.45157	1.12296	0.0633134	-0.360827	0.0959766	-0.065431	-0.222954	0.979761	-0.145962	-0.0926227	1.3468	-0.0933042	-0.229794	1.59017	-0.0620622	-0.0489984	1.20591	-0.303036	-0.336968	1.65361	-0.0696871	-0.326126	1.04224	-0.190645	-0.0906649	1.13001	-0.284047	-0.295217	0.0507663	-0.00440448	-0.351897	0.506055	-0.0969718	-0.0901259	1.0171	-0.0337284	-0.223373	1.44895	-0.169798	-0.268153	0.814733	-0.166387	-0.334576	0.37471	-0.12126	-0.51898	0.106052	-0.00161078	-0.101618	1.2795	-0.282975	-0.22318	1.09665	-0.185512	-0.22208	1.03481	-0.222844	-0.361287	1.22127	-0.0224219	-0.110842	1.25304	0.0209045
546	5.44498	-0.175604	1.4544	0.00571407	-0.334367	1.37402	-0.0259027	0.228004	0.24886	0.0844773	-0.217651	0.987362	0.159931	-0.25478	1.57712	0.0823234	-0.322838	1.11131	0.270618	-0.359905	1.65205	0.0552968	-0.489664	1.18623	0.010365	-0.395446	1.08523	0.136494	0.262662	0.305451	0.0228335	-0.115988	0.457382	0.146904	-0.0877648	1.01772	0.0304132	-0.277902	1.43815	0.160366	-0.161285	0.646271	0.173346	0.107745	0.340253	0.124313	0.199163	0.0770157	0.0232417	-0.327213	1.28211	0.24696	-0.403013	1.16408	0.0611552	-0.448405	1.108	0.064521	-0.3475	0.0932918	-0.0640782	-0.220138	0.972424	-0.147002	-0.0924025	1.33772	-0.0949765	-0.229602	1.58205	-0.064315	-0.0539454	1.19317	-0.304653	-0.336499	1.64599	-0.0722175	-0.334536	1.03923	-0.189429	-0.0973443	1.11887	-0.284473	-0.279596	0.0528263	-0.00317107	-0.353185	0.500244	-0.0980232	-0.0880363	1.0073	-0.0321248	-0.223463	1.44052	-0.171555	-0.267901	0.808857	-0.165141	-0.331251	0.367839	-0.120772	-0.508121	0.0898802	-0.00315943	-0.105821	1.26681	-0.284771	-0.230134	1.09066	-0.185098	-0.230807	1.02834	-0.221796	-0.360436	1.21309	-0.0247656	-0.109596	1.24381	0.0193609
547	5.45497	-0.17564	1.44555	0.00426333	-0.333818	1.36433	-0.0260821	0.22609	0.253976	0.0838445	-0.218067	0.978788	0.160604	-0.254582	1.56988	0.0801819	-0.317604	1.10316	0.271295	-0.359413	1.6453	0.0529394	-0.488508	1.1677	0.0108159	-0.39078	1.07227	0.138418	0.25571	0.310969	0.0204906	-0.125006	0.448048	0.149619	-0.0859876	1.00738	0.0314309	-0.278452	1.4302	0.15911	-0.16789	0.636709	0.174631	0.102941	0.339431	0.124727	0.203896	0.0795932	0.0268762	-0.324693	1.27358	0.246588	-0.400883	1.14899	0.061473	-0.444765	1.09193	0.0664149	-0.333461	0.0923252	-0.062675	-0.216689	0.965099	-0.148154	-0.0926994	1.32816	-0.096779	-0.22957	1.57374	-0.0664476	-0.0596314	1.17931	-0.306324	-0.336026	1.63839	-0.0744589	-0.343723	1.0364	-0.187897	-0.104839	1.10683	-0.284881	-0.262923	0.0549766	-0.00236675	-0.355737	0.494085	-0.100137	-0.0849605	0.997095	-0.0309028	-0.223989	1.43129	-0.173622	-0.267684	0.802962	-0.163349	-0.329108	0.362979	-0.121148	-0.496317	0.076545	-0.00317533	-0.110493	1.25332	-0.286633	-0.237509	1.08449	-0.184423	-0.240471	1.02179	-0.220473	-0.359484	1.20419	-0.0265365	-0.107577	1.23351	0.0181036
548	5.46496	-0.175477	1.43635	0.00267517	-0.333522	1.35394	-0.0259888	0.222231	0.259079	0.0833996	-0.218083	0.969378	0.161672	-0.254518	1.56306	0.078071	-0.311285	1.09469	0.271991	-0.358864	1.63911	0.0507912	-0.486944	1.14792	0.012122	-0.38493	1.05891	0.140788	0.248229	0.315762	0.0184518	-0.134663	0.438901	0.151508	-0.0834501	0.996304	0.0324449	-0.278233	1.42226	0.157906	-0.174856	0.62658	0.175652	0.0966874	0.338693	0.124948	0.205439	0.0827493	0.0308152	-0.321491	1.26448	0.246599	-0.398292	1.13295	0.0622824	-0.440534	1.07497	0.0690444	-0.317611	0.0922336	-0.0614179	-0.212525	0.957994	-0.149341	-0.0934125	1.31818	-0.0987234	-0.229729	1.56582	-0.0685	-0.0660609	1.1644	-0.307945	-0.335738	1.63136	-0.0766694	-0.353463	1.03399	-0.185973	-0.113077	1.09408	-0.285162	-0.244785	0.0567262	-0.00197284	-0.361348	0.490187	-0.102663	-0.0805738	0.986493	-0.0301031	-0.224659	1.42149	-0.176212	-0.267082	0.798507	-0.163064	-0.330213	0.361789	-0.122119	-0.481412	0.0682794	-0.000843522	-0.115523	1.23901	-0.288528	-0.245335	1.07819	-0.183458	-0.250929	1.01533	-0.218601	-0.358429	1.19441	-0.0275774	-0.104847	1.22244	0.0172628
549	5.47495	-0.174748	1.42817	0.000770451	-0.333665	1.34326	-0.025939	0.216224	0.264046	0.0831273	-0.21757	0.959408	0.163092	-0.25432	1.55672	0.0761863	-0.303852	1.08606	0.27266	-0.358229	1.63335	0.0488054	-0.484915	1.12715	0.014519	-0.378374	1.04504	0.143832	0.240247	0.319966	0.0168317	-0.145619	0.430418	0.152607	-0.0801789	0.984166	0.0339352	-0.277704	1.41426	0.157551	-0.182432	0.616695	0.176409	0.0884062	0.338131	0.125117	0.203738	0.0862991	0.0346878	-0.317757	1.25506	0.246983	-0.395092	1.1162	0.0635573	-0.435549	1.05735	0.0723895	-0.299747	0.0926889	-0.0606338	-0.207998	0.951888	-0.150131	-0.0941096	1.30813	-0.100874	-0.229907	1.55854	-0.0704819	-0.0731107	1.14876	-0.309582	-0.335506	1.62485	-0.0787153	-0.363691	1.03197	-0.183604	-0.122097	1.0808	-0.28514	-0.225826	0.0577539	-0.00199214	-0.368717	0.490331	-0.104873	-0.0753783	0.974998	-0.0289302	-0.225202	1.41157	-0.17937	-0.265624	0.796504	-0.164957	-0.333404	0.362176	-0.123195	-0.462705	0.0654971	0.00124867	-0.120884	1.22386	-0.290328	-0.253804	1.07192	-0.182329	-0.262036	1.00896	-0.216159	-0.357234	1.18374	-0.0278177	-0.101559	1.21093	0.0168699
550	5.48494	-0.173902	1.42169	-0.00194961	-0.334264	1.333	-0.0262236	0.208223	0.268687	0.0829367	-0.216237	0.949446	0.164637	-0.253971	1.55052	0.0743715	-0.295441	1.07752	0.273399	-0.357586	1.62751	0.0469387	-0.482478	1.10562	0.0181756	-0.370748	1.03088	0.147354	0.231711	0.323764	0.0157539	-0.158429	0.422852	0.153334	-0.0763203	0.971046	0.0369552	-0.277129	1.40625	0.158292	-0.191104	0.608548	0.177339	0.0779727	0.337675	0.125385	0.19892	0.0899391	0.0381897	-0.31369	1.24587	0.247523	-0.391132	1.09902	0.0653081	-0.429548	1.0393	0.076376	-0.281021	0.0930674	-0.0604841	-0.203039	0.947057	-0.150017	-0.0943111	1.29856	-0.103255	-0.229967	1.55168	-0.072372	-0.0809497	1.13268	-0.311153	-0.335276	1.6184	-0.0805493	-0.374408	1.03041	-0.180887	-0.132033	1.06733	-0.284814	-0.206804	0.0582848	-0.00235353	-0.37465	0.491693	-0.107185	-0.0703374	0.962971	-0.0257851	-0.225503	1.4019	-0.182795	-0.263331	0.794788	-0.168047	-0.33578	0.361588	-0.124383	-0.442923	0.0647497	0.00113627	-0.126729	1.2081	-0.291766	-0.262873	1.06586	-0.180996	-0.273883	1.00273	-0.21319	-0.355887	1.17236	-0.0273835	-0.0980294	1.19952	0.0168552
551	5.49494	-0.173782	1.41661	-0.00539886	-0.334668	1.32355	-0.0266718	0.198466	0.27292	0.0829456	-0.214184	0.940004	0.16627	-0.253404	1.54425	0.0728656	-0.286251	1.06941	0.274369	-0.357061	1.62139	0.0451864	-0.479371	1.08367	0.023153	-0.361834	1.0168	0.151055	0.222722	0.327229	0.0150842	-0.172845	0.41622	0.153918	-0.0720668	0.958305	0.0420732	-0.276884	1.39839	0.159386	-0.200845	0.602968	0.178265	0.0658571	0.337198	0.125694	0.191093	0.093443	0.0414572	-0.30925	1.23736	0.247809	-0.386284	1.08174	0.0676052	-0.422319	1.02102	0.080912	-0.262456	0.0931086	-0.0606048	-0.198123	0.942952	-0.149326	-0.0941465	1.28971	-0.105849	-0.229909	1.54497	-0.0741906	-0.0898858	1.11648	-0.312457	-0.335079	1.61182	-0.0822621	-0.385559	1.02949	-0.177763	-0.143103	1.05404	-0.284176	-0.18762	0.0588499	-0.00268658	-0.377111	0.489693	-0.110539	-0.0656703	0.952129	-0.0201009	-0.225604	1.39256	-0.186241	-0.259857	0.791636	-0.171345	-0.334425	0.359173	-0.126234	-0.424647	0.0635354	0.000444774	-0.133479	1.19227	-0.292512	-0.272497	1.06024	-0.179143	-0.286447	0.996978	-0.2096	-0.354396	1.16071	-0.0263795	-0.0951682	1.18919	0.0171765
